<svg width="212" height="51" viewBox="0 0 212 51" fill="none" xmlns="http://www.w3.org/2000/svg">
<path d="M7.33789 22.085L16.0205 6.82812H21.8477V31H16.0205V15.7598L7.33789 31H1.51074V6.82812H7.33789V22.085ZM45.04 26.5176V31H28.0566V26.5176H45.04ZM29.9824 26.5176V36.9268H24.5869L24.1885 26.5176H29.9824ZM49.0078 26.5176L48.3936 36.9434H43.1641V26.5176H49.0078ZM42.5 6.82812V11.3271H30.3643V6.82812H42.5ZM46.418 6.82812V31H40.624V6.82812H46.418ZM29.9824 6.82812H35.793L35.0791 16.7393C34.9574 18.4326 34.7637 19.9046 34.498 21.1553C34.2324 22.4059 33.917 23.485 33.5518 24.3926C33.1865 25.3001 32.7881 26.0804 32.3564 26.7334C31.9248 27.3864 31.471 27.9564 30.9951 28.4434C30.5303 28.9303 30.0654 29.373 29.6006 29.7715C29.1357 30.1699 28.6875 30.5794 28.2559 31H24.7197V26.5176H25.8818C26.2249 26.2741 26.568 25.9476 26.9111 25.5381C27.2653 25.1175 27.5973 24.5475 27.9072 23.8281C28.2171 23.1087 28.4883 22.1735 28.7207 21.0225C28.9531 19.8714 29.1302 18.4437 29.252 16.7393L29.9824 6.82812ZM67.6514 26.5176V31H54.7686V26.5176H67.6514ZM56.8438 6.82812V31H51.0166V6.82812H56.8438ZM65.9912 16.4238V20.7568H54.7686V16.4238H65.9912ZM67.7012 6.82812V11.3271H54.7686V6.82812H67.7012ZM53.0088 3.19238C53.0088 2.57259 53.2578 2.05241 53.7559 1.63184C54.2539 1.2002 54.8405 0.984375 55.5156 0.984375C56.2018 0.984375 56.7884 1.2002 57.2754 1.63184C57.7734 2.05241 58.0225 2.57259 58.0225 3.19238C58.0225 3.81217 57.7734 4.33789 57.2754 4.76953C56.7884 5.1901 56.2018 5.40039 55.5156 5.40039C54.8405 5.40039 54.2539 5.1901 53.7559 4.76953C53.2578 4.33789 53.0088 3.81217 53.0088 3.19238ZM61.625 3.19238C61.625 2.57259 61.874 2.05241 62.3721 1.63184C62.8701 1.2002 63.4567 0.984375 64.1318 0.984375C64.818 0.984375 65.4046 1.2002 65.8916 1.63184C66.3896 2.05241 66.6387 2.57259 66.6387 3.19238C66.6387 3.81217 66.3896 4.33789 65.8916 4.76953C65.4046 5.1901 64.818 5.40039 64.1318 5.40039C63.4567 5.40039 62.8701 5.1901 62.3721 4.76953C61.874 4.33789 61.625 3.81217 61.625 3.19238ZM72.9307 6.82812H77.6787L83.0742 23.6455L88.4697 6.82812H93.2178L85 31H81.1484L72.9307 6.82812ZM70.042 6.82812H74.9561L75.8691 25.3555V31H70.042V6.82812ZM91.1924 6.82812H96.123V31H90.2793V25.3555L91.1924 6.82812ZM109.388 19.0635H101.884L101.851 18.167H108.026C109.487 18.167 110.71 17.9788 111.695 17.6025C112.691 17.2262 113.438 16.6507 113.937 15.876C114.435 15.1012 114.684 14.1273 114.684 12.9541C114.684 11.792 114.418 10.8236 113.887 10.0488C113.367 9.27409 112.586 8.69303 111.546 8.30566C110.517 7.91829 109.233 7.72461 107.694 7.72461H102.232V31H101.336V6.82812H107.694C108.912 6.82812 110.007 6.94987 110.981 7.19336C111.955 7.43685 112.785 7.81315 113.472 8.32227C114.158 8.83138 114.684 9.47884 115.049 10.2646C115.414 11.0394 115.597 11.958 115.597 13.0205C115.597 14.0166 115.409 14.9131 115.032 15.71C114.667 16.5068 114.13 17.1543 113.422 17.6523C112.714 18.1504 111.839 18.4548 110.799 18.5654L109.388 19.0635ZM109.222 31H101.851L102.133 30.1035H109.222C110.583 30.1035 111.751 29.8766 112.725 29.4229C113.71 28.9691 114.468 28.3161 114.999 27.4639C115.53 26.6006 115.796 25.5713 115.796 24.376C115.796 23.4463 115.558 22.5775 115.082 21.7695C114.617 20.9616 113.909 20.3086 112.957 19.8105C112.005 19.3125 110.815 19.0635 109.388 19.0635H105.47L105.503 18.167H111.23L111.297 18.4824C112.315 18.6042 113.228 18.9417 114.036 19.4951C114.855 20.0485 115.503 20.7513 115.979 21.6035C116.454 22.4447 116.692 23.3577 116.692 24.3428C116.692 25.7705 116.371 26.9824 115.729 27.9785C115.099 28.9635 114.224 29.7161 113.106 30.2363C111.989 30.7454 110.694 31 109.222 31ZM126.155 6.82812V31H120.345V6.82812H126.155ZM140.101 6.82812L131.418 21.4375H125.143L124.445 16.1748H128.413L133.062 6.82812H140.101ZM134.058 31L128.396 20.4248L132.63 16.5234L140.931 31H134.058ZM147.887 22.085L156.569 6.82812H162.396V31H156.569V15.7598L147.887 31H142.06V6.82812H147.887V22.085ZM182.252 16.4238V20.9062H169.851V16.4238H182.252ZM171.793 6.82812V31H165.966V6.82812H171.793ZM186.17 6.82812V31H180.359V6.82812H186.17ZM210.325 18.4326V19.4121C210.325 21.2604 210.065 22.9206 209.545 24.3926C209.036 25.8535 208.311 27.1042 207.37 28.1445C206.429 29.1738 205.317 29.9652 204.033 30.5186C202.749 31.0609 201.333 31.332 199.783 31.332C198.223 31.332 196.795 31.0609 195.5 30.5186C194.216 29.9652 193.098 29.1738 192.146 28.1445C191.206 27.1042 190.475 25.8535 189.955 24.3926C189.446 22.9206 189.191 21.2604 189.191 19.4121V18.4326C189.191 16.5843 189.446 14.9242 189.955 13.4521C190.475 11.9801 191.2 10.7295 192.13 9.7002C193.071 8.65983 194.183 7.86849 195.467 7.32617C196.762 6.77279 198.189 6.49609 199.75 6.49609C201.299 6.49609 202.716 6.77279 204 7.32617C205.295 7.86849 206.413 8.65983 207.354 9.7002C208.294 10.7295 209.025 11.9801 209.545 13.4521C210.065 14.9242 210.325 16.5843 210.325 18.4326ZM204.415 19.4121V18.3994C204.415 17.2041 204.31 16.1527 204.1 15.2451C203.9 14.3265 203.602 13.5573 203.203 12.9375C202.805 12.3177 202.312 11.8529 201.726 11.543C201.15 11.222 200.492 11.0615 199.75 11.0615C198.975 11.0615 198.3 11.222 197.725 11.543C197.149 11.8529 196.668 12.3177 196.28 12.9375C195.893 13.5573 195.6 14.3265 195.4 15.2451C195.212 16.1527 195.118 17.2041 195.118 18.3994V19.4121C195.118 20.5964 195.212 21.6478 195.4 22.5664C195.6 23.474 195.893 24.2432 196.28 24.874C196.679 25.5049 197.166 25.9808 197.741 26.3018C198.328 26.6227 199.008 26.7832 199.783 26.7832C200.525 26.7832 201.183 26.6227 201.759 26.3018C202.334 25.9808 202.816 25.5049 203.203 24.874C203.602 24.2432 203.9 23.474 204.1 22.5664C204.31 21.6478 204.415 20.5964 204.415 19.4121Z" fill="white"/>
<path d="M3.45703 41.5205L1.10352 48H0.141602L2.85156 40.8906H3.47168L3.45703 41.5205ZM5.42969 48L3.07129 41.5205L3.05664 40.8906H3.67676L6.39648 48H5.42969ZM5.30762 45.3682V46.1396H1.31348V45.3682H5.30762ZM17.7371 47.2334V48H12.3562V47.2334H17.7371ZM12.5076 47.2334V49.748H11.575L11.5701 47.2334H12.5076ZM18.5574 47.2334L18.5477 49.7432H17.615V47.2334H18.5574ZM16.8143 40.8906V41.6621H13.699V40.8906H16.8143ZM17.6248 40.8906V48H16.6873V40.8906H17.6248ZM13.3768 40.8906H14.3191L14.1727 43.752C14.1531 44.1816 14.1124 44.5788 14.0506 44.9434C13.9887 45.3047 13.9122 45.6351 13.8211 45.9346C13.7299 46.234 13.6258 46.5026 13.5086 46.7402C13.3914 46.9746 13.2661 47.1781 13.1326 47.3506C12.9992 47.5199 12.8592 47.6598 12.7127 47.7705C12.5695 47.8779 12.4246 47.9544 12.2781 48H11.8484V47.2334H12.1512C12.2358 47.1423 12.3318 47.0104 12.4393 46.8379C12.5499 46.6654 12.659 46.4424 12.7664 46.1689C12.8771 45.8923 12.9731 45.5553 13.0545 45.1582C13.1391 44.7611 13.1961 44.2923 13.2254 43.752L13.3768 40.8906ZM24.6637 40.8906H25.5768L27.9059 46.6865L30.2301 40.8906H31.148L28.2574 48H27.5445L24.6637 40.8906ZM24.3658 40.8906H25.1715L25.3033 45.2266V48H24.3658V40.8906ZM30.6354 40.8906H31.441V48H30.5035V45.2266L30.6354 40.8906ZM38.7777 46.3691L42.2787 40.8906H43.2211V48H42.2787V42.5166L38.7777 48H37.8402V40.8906H38.7777V46.3691ZM54.2785 43.9473V44.7139H50.4309V43.9473H54.2785ZM50.5773 40.8906V48H49.635V40.8906H50.5773ZM55.0988 40.8906V48H54.1613V40.8906H55.0988ZM62.4551 46.3691L65.9561 40.8906H66.8984V48H65.9561V42.5166L62.4551 48H61.5176V40.8906H62.4551V46.3691ZM77.6043 45.7393H78.5418C78.493 46.1885 78.3644 46.5905 78.1561 46.9453C77.9477 47.3001 77.6531 47.5817 77.2723 47.79C76.8914 47.9951 76.4161 48.0977 75.8465 48.0977C75.4298 48.0977 75.0506 48.0195 74.7088 47.8633C74.3702 47.707 74.0789 47.4857 73.8348 47.1992C73.5906 46.9095 73.4018 46.5628 73.2684 46.1592C73.1381 45.7523 73.073 45.2998 73.073 44.8018V44.0938C73.073 43.5957 73.1381 43.1449 73.2684 42.7412C73.4018 42.3343 73.5922 41.986 73.8396 41.6963C74.0903 41.4066 74.3914 41.1836 74.743 41.0273C75.0945 40.8711 75.49 40.793 75.9295 40.793C76.4666 40.793 76.9207 40.8939 77.2918 41.0957C77.6629 41.2975 77.951 41.5775 78.1561 41.9355C78.3644 42.2904 78.493 42.7021 78.5418 43.1709H77.6043C77.5587 42.8389 77.4741 42.554 77.3504 42.3164C77.2267 42.0755 77.0509 41.89 76.823 41.7598C76.5952 41.6296 76.2973 41.5645 75.9295 41.5645C75.6137 41.5645 75.3354 41.6247 75.0945 41.7451C74.8569 41.8656 74.6567 42.0365 74.4939 42.2578C74.3344 42.4792 74.214 42.7445 74.1326 43.0537C74.0512 43.363 74.0105 43.7064 74.0105 44.084V44.8018C74.0105 45.1501 74.0464 45.4772 74.118 45.7832C74.1928 46.0892 74.3051 46.3577 74.4549 46.5889C74.6046 46.82 74.795 47.0023 75.0262 47.1357C75.2573 47.266 75.5307 47.3311 75.8465 47.3311C76.2469 47.3311 76.5659 47.2676 76.8035 47.1406C77.0411 47.0137 77.2202 46.8314 77.3406 46.5938C77.4643 46.3561 77.5522 46.0713 77.6043 45.7393ZM87.0064 40.8906V48H86.0787V40.8906H87.0064ZM89.2916 40.8906V41.6621H83.7984V40.8906H89.2916ZM97.6684 45.2119H95.7689V44.4453H97.6684C98.0362 44.4453 98.334 44.3867 98.5619 44.2695C98.7898 44.1523 98.9558 43.9896 99.06 43.7812C99.1674 43.5729 99.2211 43.3353 99.2211 43.0684C99.2211 42.8242 99.1674 42.5947 99.06 42.3799C98.9558 42.165 98.7898 41.9925 98.5619 41.8623C98.334 41.7288 98.0362 41.6621 97.6684 41.6621H95.9887V48H95.0463V40.8906H97.6684C98.2055 40.8906 98.6596 40.9834 99.0307 41.1689C99.4018 41.3545 99.6833 41.6117 99.8754 41.9404C100.067 42.266 100.163 42.6387 100.163 43.0586C100.163 43.5143 100.067 43.9033 99.8754 44.2256C99.6833 44.5479 99.4018 44.7936 99.0307 44.9629C98.6596 45.1289 98.2055 45.2119 97.6684 45.2119ZM108.013 41.5205L105.659 48H104.697L107.407 40.8906H108.028L108.013 41.5205ZM109.986 48L107.627 41.5205L107.612 40.8906H108.233L110.952 48H109.986ZM109.863 45.3682V46.1396H105.869V45.3682H109.863ZM118.597 40.8906V48H117.669V40.8906H118.597ZM120.882 40.8906V41.6621H115.389V40.8906H120.882ZM131.973 44.2207V44.6699C131.973 45.2038 131.907 45.6823 131.773 46.1055C131.64 46.5286 131.448 46.8883 131.197 47.1846C130.946 47.4808 130.645 47.707 130.294 47.8633C129.945 48.0195 129.555 48.0977 129.122 48.0977C128.702 48.0977 128.316 48.0195 127.965 47.8633C127.616 47.707 127.314 47.4808 127.056 47.1846C126.803 46.8883 126.606 46.5286 126.466 46.1055C126.326 45.6823 126.256 45.2038 126.256 44.6699V44.2207C126.256 43.6868 126.324 43.21 126.461 42.79C126.601 42.3669 126.798 42.0072 127.052 41.7109C127.305 41.4115 127.607 41.1836 127.955 41.0273C128.306 40.8711 128.692 40.793 129.112 40.793C129.545 40.793 129.936 40.8711 130.284 41.0273C130.636 41.1836 130.937 41.4115 131.187 41.7109C131.441 42.0072 131.635 42.3669 131.768 42.79C131.905 43.21 131.973 43.6868 131.973 44.2207ZM131.041 44.6699V44.2109C131.041 43.7878 130.997 43.4134 130.909 43.0879C130.824 42.7624 130.699 42.4889 130.533 42.2676C130.367 42.0462 130.164 41.8786 129.923 41.7646C129.685 41.6507 129.415 41.5938 129.112 41.5938C128.819 41.5938 128.554 41.6507 128.316 41.7646C128.082 41.8786 127.88 42.0462 127.711 42.2676C127.545 42.4889 127.416 42.7624 127.325 43.0879C127.234 43.4134 127.188 43.7878 127.188 44.2109V44.6699C127.188 45.0964 127.234 45.474 127.325 45.8027C127.416 46.1283 127.546 46.4033 127.716 46.6279C127.888 46.8493 128.092 47.0169 128.326 47.1309C128.564 47.2448 128.829 47.3018 129.122 47.3018C129.428 47.3018 129.7 47.2448 129.937 47.1309C130.175 47.0169 130.375 46.8493 130.538 46.6279C130.704 46.4033 130.829 46.1283 130.914 45.8027C130.998 45.474 131.041 45.0964 131.041 44.6699ZM140.707 45.2119H138.807V44.4453H140.707C141.074 44.4453 141.372 44.3867 141.6 44.2695C141.828 44.1523 141.994 43.9896 142.098 43.7812C142.206 43.5729 142.259 43.3353 142.259 43.0684C142.259 42.8242 142.206 42.5947 142.098 42.3799C141.994 42.165 141.828 41.9925 141.6 41.8623C141.372 41.7288 141.074 41.6621 140.707 41.6621H139.027V48H138.085V40.8906H140.707C141.244 40.8906 141.698 40.9834 142.069 41.1689C142.44 41.3545 142.722 41.6117 142.914 41.9404C143.106 42.266 143.202 42.6387 143.202 43.0586C143.202 43.5143 143.106 43.9033 142.914 44.2256C142.722 44.5479 142.44 44.7936 142.069 44.9629C141.698 45.1289 141.244 45.2119 140.707 45.2119ZM151.715 45.2119H149.816V44.4453H151.715C152.083 44.4453 152.381 44.3867 152.609 44.2695C152.837 44.1523 153.003 43.9896 153.107 43.7812C153.214 43.5729 153.268 43.3353 153.268 43.0684C153.268 42.8242 153.214 42.5947 153.107 42.3799C153.003 42.165 152.837 41.9925 152.609 41.8623C152.381 41.7288 152.083 41.6621 151.715 41.6621H150.036V48H149.093V40.8906H151.715C152.252 40.8906 152.706 40.9834 153.078 41.1689C153.449 41.3545 153.73 41.6117 153.922 41.9404C154.114 42.266 154.21 42.6387 154.21 43.0586C154.21 43.5143 154.114 43.9033 153.922 44.2256C153.73 44.5479 153.449 44.7936 153.078 44.9629C152.706 45.1289 152.252 45.2119 151.715 45.2119ZM162.724 45.2119H160.824V44.4453H162.724C163.092 44.4453 163.39 44.3867 163.617 44.2695C163.845 44.1523 164.011 43.9896 164.115 43.7812C164.223 43.5729 164.277 43.3353 164.277 43.0684C164.277 42.8242 164.223 42.5947 164.115 42.3799C164.011 42.165 163.845 41.9925 163.617 41.8623C163.39 41.7288 163.092 41.6621 162.724 41.6621H161.044V48H160.102V40.8906H162.724C163.261 40.8906 163.715 40.9834 164.086 41.1689C164.457 41.3545 164.739 41.6117 164.931 41.9404C165.123 42.266 165.219 42.6387 165.219 43.0586C165.219 43.5143 165.123 43.9033 164.931 44.2256C164.739 44.5479 164.457 44.7936 164.086 44.9629C163.715 45.1289 163.261 45.2119 162.724 45.2119ZM175.402 45.7393H176.34C176.291 46.1885 176.162 46.5905 175.954 46.9453C175.746 47.3001 175.451 47.5817 175.07 47.79C174.689 47.9951 174.214 48.0977 173.645 48.0977C173.228 48.0977 172.849 48.0195 172.507 47.8633C172.168 47.707 171.877 47.4857 171.633 47.1992C171.389 46.9095 171.2 46.5628 171.066 46.1592C170.936 45.7523 170.871 45.2998 170.871 44.8018V44.0938C170.871 43.5957 170.936 43.1449 171.066 42.7412C171.2 42.3343 171.39 41.986 171.638 41.6963C171.888 41.4066 172.189 41.1836 172.541 41.0273C172.893 40.8711 173.288 40.793 173.728 40.793C174.265 40.793 174.719 40.8939 175.09 41.0957C175.461 41.2975 175.749 41.5775 175.954 41.9355C176.162 42.2904 176.291 42.7021 176.34 43.1709H175.402C175.357 42.8389 175.272 42.554 175.148 42.3164C175.025 42.0755 174.849 41.89 174.621 41.7598C174.393 41.6296 174.095 41.5645 173.728 41.5645C173.412 41.5645 173.133 41.6247 172.893 41.7451C172.655 41.8656 172.455 42.0365 172.292 42.2578C172.132 42.4792 172.012 42.7445 171.931 43.0537C171.849 43.363 171.809 43.7064 171.809 44.084V44.8018C171.809 45.1501 171.844 45.4772 171.916 45.7832C171.991 46.0892 172.103 46.3577 172.253 46.5889C172.403 46.82 172.593 47.0023 172.824 47.1357C173.055 47.266 173.329 47.3311 173.645 47.3311C174.045 47.3311 174.364 47.2676 174.602 47.1406C174.839 47.0137 175.018 46.8314 175.139 46.5938C175.262 46.3561 175.35 46.0713 175.402 45.7393ZM183.31 40.8906V48H182.368V40.8906H183.31ZM187.69 40.8906L184.604 44.8018H182.934L182.788 44.0205H184.043L186.523 40.8906H187.69ZM186.743 48L184.072 44.6797L184.599 43.8545L187.895 48H186.743ZM196.082 41.5205L193.728 48H192.766L195.476 40.8906H196.096L196.082 41.5205ZM198.054 48L195.696 41.5205L195.681 40.8906H196.301L199.021 48H198.054ZM197.932 45.3682V46.1396H193.938V45.3682H197.932ZM208.619 45.2314H206.621L206.158 45.041C205.643 44.8783 205.248 44.6292 204.971 44.2939C204.694 43.9554 204.556 43.5355 204.556 43.0342C204.556 42.5752 204.657 42.1862 204.859 41.8672C205.064 41.5482 205.354 41.3057 205.728 41.1396C206.106 40.9736 206.551 40.8906 207.066 40.8906H209.341V48H208.399V41.6621H207.066C206.545 41.6621 206.153 41.7858 205.889 42.0332C205.629 42.2806 205.498 42.6143 205.498 43.0342C205.498 43.3076 205.555 43.5518 205.669 43.7666C205.787 43.9814 205.959 44.1507 206.187 44.2744C206.415 44.3981 206.698 44.46 207.037 44.46H208.623L208.619 45.2314ZM207.017 44.7432L205.288 48H204.287L206.065 44.7432H207.017Z" fill="white"/>
</svg>
