<svg width="209" height="36" viewBox="0 0 209 36" fill="none" xmlns="http://www.w3.org/2000/svg">
<path d="M5.82715 21.1006L14.5098 5.84375H20.3369V30.0156H14.5098V14.7754L5.82715 30.0156H0V5.84375H5.82715V21.1006ZM43.5293 25.5332V30.0156H26.5459V25.5332H43.5293ZM28.4717 25.5332V35.9424H23.0762L22.6777 25.5332H28.4717ZM47.4971 25.5332L46.8828 35.959H41.6533V25.5332H47.4971ZM40.9893 5.84375V10.3428H28.8535V5.84375H40.9893ZM44.9072 5.84375V30.0156H39.1133V5.84375H44.9072ZM28.4717 5.84375H34.2822L33.5684 15.7549C33.4466 17.4482 33.2529 18.9202 32.9873 20.1709C32.7217 21.4215 32.4062 22.5007 32.041 23.4082C31.6758 24.3158 31.2773 25.096 30.8457 25.749C30.4141 26.402 29.9603 26.972 29.4844 27.459C29.0195 27.946 28.5547 28.3887 28.0898 28.7871C27.625 29.1855 27.1768 29.5951 26.7451 30.0156H23.209V25.5332H24.3711C24.7142 25.2897 25.0573 24.9632 25.4004 24.5537C25.7546 24.1331 26.0866 23.5632 26.3965 22.8438C26.7064 22.1243 26.9775 21.1891 27.21 20.0381C27.4424 18.887 27.6195 17.4593 27.7412 15.7549L28.4717 5.84375ZM66.1406 25.5332V30.0156H53.2578V25.5332H66.1406ZM55.333 5.84375V30.0156H49.5059V5.84375H55.333ZM64.4805 15.4395V19.7725H53.2578V15.4395H64.4805ZM66.1904 5.84375V10.3428H53.2578V5.84375H66.1904ZM51.498 2.20801C51.498 1.58822 51.7471 1.06803 52.2451 0.647461C52.7432 0.21582 53.3298 0 54.0049 0C54.6911 0 55.2777 0.21582 55.7646 0.647461C56.2627 1.06803 56.5117 1.58822 56.5117 2.20801C56.5117 2.8278 56.2627 3.35352 55.7646 3.78516C55.2777 4.20573 54.6911 4.41602 54.0049 4.41602C53.3298 4.41602 52.7432 4.20573 52.2451 3.78516C51.7471 3.35352 51.498 2.8278 51.498 2.20801ZM60.1143 2.20801C60.1143 1.58822 60.3633 1.06803 60.8613 0.647461C61.3594 0.21582 61.946 0 62.6211 0C63.3073 0 63.8939 0.21582 64.3809 0.647461C64.8789 1.06803 65.1279 1.58822 65.1279 2.20801C65.1279 2.8278 64.8789 3.35352 64.3809 3.78516C63.8939 4.20573 63.3073 4.41602 62.6211 4.41602C61.946 4.41602 61.3594 4.20573 60.8613 3.78516C60.3633 3.35352 60.1143 2.8278 60.1143 2.20801ZM71.4199 5.84375H76.168L81.5635 22.6611L86.959 5.84375H91.707L83.4893 30.0156H79.6377L71.4199 5.84375ZM68.5312 5.84375H73.4453L74.3584 24.3711V30.0156H68.5312V5.84375ZM89.6816 5.84375H94.6123V30.0156H88.7686V24.3711L89.6816 5.84375ZM107.877 18.0791H100.373L100.34 17.1826H106.516C107.977 17.1826 109.2 16.9945 110.185 16.6182C111.181 16.2419 111.928 15.6663 112.426 14.8916C112.924 14.1169 113.173 13.1429 113.173 11.9697C113.173 10.8076 112.907 9.83919 112.376 9.06445C111.856 8.28971 111.076 7.70866 110.035 7.32129C109.006 6.93392 107.722 6.74023 106.184 6.74023H100.722V30.0156H99.8252V5.84375H106.184C107.401 5.84375 108.497 5.96549 109.471 6.20898C110.445 6.45247 111.275 6.82878 111.961 7.33789C112.647 7.84701 113.173 8.49447 113.538 9.28027C113.903 10.055 114.086 10.9736 114.086 12.0361C114.086 13.0322 113.898 13.9287 113.521 14.7256C113.156 15.5225 112.619 16.1699 111.911 16.668C111.203 17.166 110.328 17.4704 109.288 17.5811L107.877 18.0791ZM107.711 30.0156H100.34L100.622 29.1191H107.711C109.072 29.1191 110.24 28.8923 111.214 28.4385C112.199 27.9847 112.957 27.3317 113.488 26.4795C114.02 25.6162 114.285 24.5869 114.285 23.3916C114.285 22.4619 114.047 21.5931 113.571 20.7852C113.106 19.9772 112.398 19.3242 111.446 18.8262C110.494 18.3281 109.305 18.0791 107.877 18.0791H103.959L103.992 17.1826H109.72L109.786 17.498C110.804 17.6198 111.717 17.9574 112.525 18.5107C113.344 19.0641 113.992 19.7669 114.468 20.6191C114.944 21.4603 115.182 22.3734 115.182 23.3584C115.182 24.7861 114.861 25.998 114.219 26.9941C113.588 27.9792 112.714 28.7318 111.596 29.252C110.478 29.7611 109.183 30.0156 107.711 30.0156ZM124.645 5.84375V30.0156H118.834V5.84375H124.645ZM138.59 5.84375L129.907 20.4531H123.632L122.935 15.1904H126.902L131.551 5.84375H138.59ZM132.547 30.0156L126.886 19.4404L131.119 15.5391L139.42 30.0156H132.547ZM146.376 21.1006L155.059 5.84375H160.886V30.0156H155.059V14.7754L146.376 30.0156H140.549V5.84375H146.376V21.1006ZM180.741 15.4395V19.9219H168.34V15.4395H180.741ZM170.282 5.84375V30.0156H164.455V5.84375H170.282ZM184.659 5.84375V30.0156H178.849V5.84375H184.659ZM208.814 17.4482V18.4277C208.814 20.276 208.554 21.9362 208.034 23.4082C207.525 24.8691 206.8 26.1198 205.859 27.1602C204.919 28.1895 203.806 28.9808 202.522 29.5342C201.239 30.0765 199.822 30.3477 198.272 30.3477C196.712 30.3477 195.284 30.0765 193.989 29.5342C192.705 28.9808 191.588 28.1895 190.636 27.1602C189.695 26.1198 188.965 24.8691 188.444 23.4082C187.935 21.9362 187.681 20.276 187.681 18.4277V17.4482C187.681 15.5999 187.935 13.9398 188.444 12.4678C188.965 10.9958 189.689 9.74512 190.619 8.71582C191.56 7.67546 192.672 6.88411 193.956 6.3418C195.251 5.78841 196.679 5.51172 198.239 5.51172C199.789 5.51172 201.205 5.78841 202.489 6.3418C203.784 6.88411 204.902 7.67546 205.843 8.71582C206.784 9.74512 207.514 10.9958 208.034 12.4678C208.554 13.9398 208.814 15.5999 208.814 17.4482ZM202.904 18.4277V17.415C202.904 16.2197 202.799 15.1683 202.589 14.2607C202.39 13.3421 202.091 12.5729 201.692 11.9531C201.294 11.3333 200.801 10.8685 200.215 10.5586C199.639 10.2376 198.981 10.0771 198.239 10.0771C197.465 10.0771 196.789 10.2376 196.214 10.5586C195.638 10.8685 195.157 11.3333 194.77 11.9531C194.382 12.5729 194.089 13.3421 193.89 14.2607C193.701 15.1683 193.607 16.2197 193.607 17.415V18.4277C193.607 19.612 193.701 20.6634 193.89 21.582C194.089 22.4896 194.382 23.2588 194.77 23.8896C195.168 24.5205 195.655 24.9964 196.23 25.3174C196.817 25.6383 197.498 25.7988 198.272 25.7988C199.014 25.7988 199.673 25.6383 200.248 25.3174C200.824 24.9964 201.305 24.5205 201.692 23.8896C202.091 23.2588 202.39 22.4896 202.589 21.582C202.799 20.6634 202.904 19.612 202.904 18.4277Z" fill="white"/>
</svg>
